<svg xmlns="http://www.w3.org/2000/svg" width="13.5" height="13.884" viewBox="0 0 13.5 13.884">
  <g id="カレンダーのフリーアイコン20" transform="translate(-7.073)">
    <path id="Path_482" data-name="Path 482" d="M121.006,2.807a.786.786,0,0,0,.785-.786V.785a.786.786,0,0,0-1.571,0V2.022A.786.786,0,0,0,121.006,2.807Z" transform="translate(-110.079)" fill="#4b4b4b"/>
    <path id="Path_483" data-name="Path 483" d="M334.628,2.807a.786.786,0,0,0,.785-.786V.785a.786.786,0,0,0-1.571,0V2.022A.786.786,0,0,0,334.628,2.807Z" transform="translate(-317.908)" fill="#4b4b4b"/>
    <path id="Path_484" data-name="Path 484" d="M18.681,41.287H18.2v.9a1.476,1.476,0,1,1-2.952,0v-.9H12.4v.9a1.476,1.476,0,1,1-2.952,0v-.9H8.965a1.892,1.892,0,0,0-1.892,1.892v8.981a1.892,1.892,0,0,0,1.892,1.892h9.717a1.892,1.892,0,0,0,1.892-1.892V43.179A1.892,1.892,0,0,0,18.681,41.287Zm.4,10.54a.878.878,0,0,1-.877.877H9.438a.878.878,0,0,1-.877-.877V44.8H19.084Z" transform="translate(0 -40.167)" fill="#4b4b4b"/>
  </g>
</svg>
