<svg width="25" height="24" viewBox="0 0 25 24" fill="none" xmlns="http://www.w3.org/2000/svg">
<path fill-rule="evenodd" clip-rule="evenodd" d="M4.99438 13.8578C10.1129 14.7455 15.2316 14.7156 20.3502 13.8578V6.74162C20.3502 6.66055 20.3239 6.58171 20.2753 6.51691L16.9045 2.02252C16.8338 1.92823 16.7227 1.87268 16.6049 1.87268H6.11798C5.82 1.87268 5.53415 1.99106 5.32346 2.20176C5.11276 2.41255 4.99438 2.6983 4.99438 2.99628V11.6106C4.99438 12.1668 4.86395 12.6383 4.86395 13.0141C4.86395 13.5336 4.99438 13.8578 4.99438 13.8578Z" fill="#D8DFE3"/>
<path fill-rule="evenodd" clip-rule="evenodd" d="M2.74719 12.8868V20.9739C2.74719 21.2718 2.86557 21.5577 3.07627 21.7684C3.28697 21.9791 3.57281 22.0974 3.87079 22.0974H21.0993C21.3973 22.0974 21.683 21.9791 21.8938 21.7684C22.1045 21.5577 22.2229 21.2718 22.2229 20.9739C22.2229 19.5387 22.2229 16.4165 22.2229 14.9814C22.2229 14.6834 22.1045 14.3976 21.8938 14.1869C21.683 13.9762 21.3973 13.8578 21.0993 13.8578H4.24535C3.76751 13.8578 2.74719 12.8868 2.74719 12.8868Z" fill="#1FB35B"/>
<path fill-rule="evenodd" clip-rule="evenodd" d="M3.87079 13.8578C3.52886 13.8578 3.27924 13.7191 3.09551 13.5483C2.92265 13.3876 2.74719 13.1043 2.74719 12.7342C2.74719 12.4966 2.86557 12.1504 3.07627 11.9397C3.28697 11.729 3.57281 11.6106 3.87079 11.6106H4.99438V13.8578C4.99438 13.8578 5.09065 13.8578 3.87079 13.8578Z" fill="#198043"/>
<path fill-rule="evenodd" clip-rule="evenodd" d="M16.6049 1.87268V5.61803C16.6049 5.91601 16.7233 6.20185 16.934 6.41255C17.1447 6.62324 17.4304 6.74162 17.7285 6.74162H20.3502C20.3502 6.66055 20.3239 6.58171 20.2753 6.51691L16.9045 2.02252C16.8338 1.92823 16.7228 1.87268 16.6049 1.87268Z" fill="#AFBDC7"/>
<path fill-rule="evenodd" clip-rule="evenodd" d="M8.36516 7.11619H13.2341C13.4408 7.11619 13.6086 6.94837 13.6086 6.74163C13.6086 6.53489 13.4408 6.36707 13.2341 6.36707H8.36516C8.15842 6.36707 7.9906 6.53489 7.9906 6.74163C7.9906 6.94837 8.15842 7.11619 8.36516 7.11619Z" fill="#1FB35B"/>
<path fill-rule="evenodd" clip-rule="evenodd" d="M8.36516 9.36338H16.9794C17.1861 9.36338 17.3539 9.19556 17.3539 8.98882C17.3539 8.78208 17.1861 8.61426 16.9794 8.61426H8.36516C8.15842 8.61426 7.9906 8.78208 7.9906 8.98882C7.9906 9.19556 8.15842 9.36338 8.36516 9.36338Z" fill="#1FB35B"/>
<path fill-rule="evenodd" clip-rule="evenodd" d="M8.36516 11.6106H16.9794C17.1861 11.6106 17.3539 11.4428 17.3539 11.236C17.3539 11.0293 17.1861 10.8615 16.9794 10.8615H8.36516C8.15842 10.8615 7.9906 11.0293 7.9906 11.236C7.9906 11.4428 8.15842 11.6106 8.36516 11.6106Z" fill="#1FB35B"/>
<path fill-rule="evenodd" clip-rule="evenodd" d="M14.5717 16.244L16.0699 19.9894C16.1267 20.1316 16.2645 20.2248 16.4176 20.2248C16.5707 20.2248 16.7084 20.1316 16.7653 19.9894L18.2635 16.244C18.3402 16.0521 18.2468 15.834 18.0548 15.7572C17.8629 15.6804 17.6447 15.7739 17.5679 15.9658L16.4176 18.8418L15.2672 15.9658C15.1904 15.7739 14.9722 15.6804 14.7803 15.7572C14.5884 15.834 14.4949 16.0521 14.5717 16.244Z" fill="white"/>
<path fill-rule="evenodd" clip-rule="evenodd" d="M8.76634 15.7305H8.55232C7.51807 15.7305 6.67969 16.5689 6.67969 17.6031V18.3522C6.67969 19.3865 7.51807 20.2249 8.55232 20.2249H8.76634C9.43447 20.2249 10.0412 19.8351 10.319 19.2275C10.3577 19.1428 10.3654 19.1268 10.3902 19.0716C10.4883 18.8539 10.3699 18.6551 10.2294 18.5845C9.99456 18.4665 9.78153 18.5973 9.70899 18.7601C9.68697 18.8096 9.63771 18.9161 9.63771 18.9161C9.48175 19.257 9.14135 19.4758 8.76634 19.4758H8.55232C7.93173 19.4758 7.42872 18.9727 7.42872 18.3522V17.6031C7.42872 16.9826 7.93173 16.4795 8.55232 16.4795H8.76634C9.14135 16.4795 9.48175 16.6983 9.63771 17.0392C9.63771 17.0392 9.68337 17.1415 9.70899 17.1952C9.82153 17.4311 10.0876 17.4646 10.2559 17.3553C10.3741 17.2783 10.4857 17.0925 10.3902 16.8837C10.319 16.7279 10.319 16.7279 10.319 16.7279C10.0412 16.1202 9.43447 15.7305 8.76634 15.7305Z" fill="white"/>
<path fill-rule="evenodd" clip-rule="evenodd" d="M10.9869 18.9164V19.102C10.9869 19.3998 11.1052 19.6854 11.3157 19.896C11.5264 20.1066 11.8119 20.2249 12.1097 20.2249H12.954C13.2517 20.2249 13.5373 20.1066 13.7479 19.896C13.9585 19.6854 14.0768 19.3998 14.0768 19.102C14.0768 19.0516 14.0768 19.0017 14.0768 18.9529C14.0768 18.4935 13.7971 18.0804 13.3705 17.9097L12.0086 17.365C11.8439 17.2991 11.736 17.1396 11.736 16.9623V16.8541C11.736 16.7547 11.7754 16.6595 11.8456 16.5893C11.9159 16.519 12.0111 16.4795 12.1104 16.4795H12.9532C13.0526 16.4795 13.1478 16.519 13.218 16.5893C13.2882 16.6595 13.3277 16.7547 13.3277 16.8541V17.0391C13.3277 17.1448 13.3744 17.2404 13.4215 17.2889C13.4945 17.3719 13.5995 17.4159 13.7023 17.4159C13.8846 17.4159 14.0768 17.2751 14.0768 17.0391V16.8541C14.0768 16.5561 13.9584 16.2702 13.7477 16.0595C13.537 15.8489 13.2512 15.7305 12.9532 15.7305H12.1105C11.8125 15.7305 11.5267 15.8489 11.316 16.0595C11.1053 16.2702 10.9869 16.5561 10.9869 16.8541V16.9623C10.9869 17.4459 11.2814 17.8809 11.7304 18.0604L13.0923 18.6053C13.2345 18.6621 13.3277 18.7999 13.3277 18.9529V19.102C13.3277 19.2011 13.2883 19.2962 13.2182 19.3663C13.1482 19.4364 13.0531 19.4758 12.954 19.4758H12.1097C12.0106 19.4758 11.9156 19.4364 11.8455 19.3663C11.7753 19.2962 11.736 19.2011 11.736 19.1021C11.736 19.102 11.736 19.102 11.736 18.9163C11.736 18.6693 11.5346 18.5393 11.368 18.5393C11.2099 18.5393 10.9869 18.6618 10.9869 18.914V18.9164Z" fill="white"/>
</svg>
