<svg id="ベタ塗りのドキュメント" xmlns="http://www.w3.org/2000/svg" width="22.48" height="29.353" viewBox="0 0 22.48 29.353">
  <path id="Path_459" data-name="Path 459" d="M61.25,0H72.879V7.972a1.6,1.6,0,0,0,1.595,1.6h7.955V28.052a1.3,1.3,0,0,1-1.3,1.3H61.25a1.3,1.3,0,0,1-1.3-1.3V1.3A1.3,1.3,0,0,1,61.25,0ZM63.9,24.894H78.48V23.5H63.9Zm0-5.651H78.48V17.85H63.9Zm0-5.65H78.48V12.2H63.9Zm0-5.651H70.77V6.549H63.9Z" transform="translate(-59.948)" fill="#757575"/>
  <path id="Path_460" data-name="Path 460" d="M66.5,13.549V6.865l7.688,7.688H67.5C66.781,14.553,66.5,14.271,66.5,13.549Z" transform="translate(-52.082 -6.471)" fill="#757575"/>
</svg>
